<svg aria-hidden="true" style="position: absolute; width: 0; height: 0; overflow: hidden;" version="1.1" xmlns="http://www.w3.org/2000/svg" xmlns:xlink="http://www.w3.org/1999/xlink">
<defs>
<symbol id="alert-triangle" viewBox="0 0 32 32">
<path d="M30.080 21.733l-10.227-16.96c-0.826-1.277-2.242-2.11-3.853-2.11s-3.028 0.833-3.842 2.092l-0.011 0.018-10.227 16.96c-0.358 0.587-0.57 1.298-0.57 2.058 0 0.713 0.187 1.383 0.514 1.962l-0.010-0.020c0.789 1.364 2.24 2.267 3.903 2.267 0.006 0 0.012 0 0.018-0h20.452c0.014 0 0.031 0 0.048 0 1.641 0 3.076-0.88 3.861-2.193l0.011-0.021c0.326-0.567 0.519-1.246 0.519-1.97 0-0.77-0.218-1.49-0.595-2.101l0.010 0.017zM27.813 24.467c-0.308 0.523-0.869 0.868-1.51 0.868-0.027 0-0.054-0.001-0.081-0.002l0.004 0h-20.453c-0.023 0.001-0.050 0.002-0.077 0.002-0.641 0-1.202-0.345-1.505-0.86l-0.004-0.008c-0.112-0.191-0.179-0.421-0.179-0.667s0.066-0.475 0.182-0.673l-0.003 0.006 10.24-16.973c0.364-0.477 0.933-0.782 1.573-0.782s1.209 0.305 1.57 0.777l0.003 0.005 10.227 16.96c0.119 0.195 0.189 0.432 0.189 0.685 0 0.244-0.065 0.472-0.179 0.668l0.003-0.006z"></path>
<path d="M17.333 21.333c0 0.736-0.597 1.333-1.333 1.333s-1.333-0.597-1.333-1.333c0-0.736 0.597-1.333 1.333-1.333s1.333 0.597 1.333 1.333z"></path>
<path d="M16 10.667c-0.736 0-1.333 0.597-1.333 1.333v0 5.333c0 0.736 0.597 1.333 1.333 1.333s1.333-0.597 1.333-1.333v0-5.333c0-0.736-0.597-1.333-1.333-1.333v0z"></path>
</symbol>
<symbol id="arrow-down" viewBox="0 0 32 32">
<path d="M16 22.667c-0.715-0.004-1.352-0.334-1.77-0.849l-0.003-0.004-5.613-6.8c-0.383-0.475-0.615-1.086-0.615-1.751 0-0.434 0.099-0.846 0.275-1.213l-0.007 0.017c0.369-0.823 1.177-1.389 2.119-1.4h11.228c0.943 0.011 1.751 0.577 2.114 1.385l0.006 0.015c0.169 0.35 0.268 0.761 0.268 1.196 0 0.665-0.232 1.276-0.619 1.756l0.004-0.005-5.613 6.8c-0.421 0.519-1.058 0.85-1.773 0.853h-0.001zM10.787 13.333l5.213 6.427 5.333-6.427z"></path>
</symbol>
<symbol id="arrow-left" viewBox="0 0 32 32">
<path d="M18.053 24c-0.001 0-0.002 0-0.003 0-0.658 0-1.262-0.231-1.735-0.617l0.005 0.004-6.8-5.613c-0.523-0.419-0.855-1.057-0.855-1.773s0.332-1.354 0.85-1.77l0.004-0.003 6.8-5.613c0.475-0.383 1.086-0.615 1.751-0.615 0.434 0 0.846 0.099 1.213 0.275l-0.017-0.007c0.823 0.369 1.389 1.177 1.4 2.119v11.228c-0.011 0.943-0.577 1.751-1.385 2.114l-0.015 0.006c-0.356 0.166-0.773 0.264-1.212 0.267h-0.001zM11.573 16l6.427 5.333v-10.547z"></path>
</symbol>
<symbol id="arrow-right" viewBox="0 0 32 32">
<path d="M13.947 24c-0.44-0.003-0.857-0.101-1.232-0.274l0.018 0.008c-0.823-0.369-1.389-1.177-1.4-2.119v-11.228c0.011-0.943 0.577-1.751 1.385-2.114l0.015-0.006c0.35-0.169 0.761-0.268 1.196-0.268 0.665 0 1.276 0.232 1.756 0.619l-0.005-0.004 6.8 5.613c0.523 0.419 0.855 1.057 0.855 1.773s-0.332 1.354-0.85 1.77l-0.004 0.003-6.8 5.613c-0.468 0.382-1.072 0.613-1.73 0.613-0.001 0-0.002 0-0.003 0h0zM13.947 10.667v10.533l6.48-5.2z"></path>
</symbol>
<symbol id="arrow-up" viewBox="0 0 32 32">
<path d="M21.613 21.333h-11.227c-0.001 0-0.002 0-0.003 0-0.928 0-1.73-0.538-2.11-1.319l-0.006-0.014c-0.169-0.35-0.268-0.761-0.268-1.196 0-0.665 0.232-1.276 0.619-1.756l-0.004 0.005 5.613-6.8c0.433-0.497 1.066-0.81 1.773-0.81s1.341 0.313 1.771 0.807l0.002 0.003 5.613 6.8c0.383 0.475 0.615 1.086 0.615 1.751 0 0.434-0.099 0.846-0.276 1.213l0.007-0.017c-0.387 0.795-1.189 1.333-2.117 1.333-0.001 0-0.002 0-0.004 0h0zM10.667 18.667h10.533l-5.2-6.427z"></path>
</symbol>
<symbol id="checkmark" viewBox="0 0 32 32">
<path d="M13.147 24c-0.384-0.001-0.73-0.165-0.973-0.426l-0.001-0.001-6.48-6.893c-0.224-0.238-0.361-0.56-0.361-0.913 0-0.737 0.598-1.335 1.335-1.335 0.383 0 0.729 0.162 0.973 0.421l0.001 0.001 5.493 5.853 11.213-12.267c0.246-0.305 0.62-0.498 1.040-0.498 0.736 0 1.333 0.597 1.333 1.333 0 0.373-0.153 0.71-0.399 0.952l-0 0-12.187 13.333c-0.241 0.267-0.587 0.435-0.972 0.44h-0.001z"></path>
</symbol>
<symbol id="close" viewBox="0 0 32 32">
<path d="M17.88 16l5.733-5.72c0.242-0.242 0.392-0.577 0.392-0.947 0-0.739-0.599-1.339-1.339-1.339-0.37 0-0.704 0.15-0.947 0.392v0l-5.72 5.733-5.72-5.733c-0.242-0.242-0.577-0.392-0.947-0.392-0.739 0-1.339 0.599-1.339 1.339 0 0.37 0.15 0.704 0.392 0.947v0l5.733 5.72-5.733 5.72c-0.244 0.242-0.394 0.577-0.394 0.947s0.151 0.705 0.394 0.947l0 0c0.242 0.244 0.577 0.394 0.947 0.394s0.705-0.151 0.947-0.394l0-0 5.72-5.733 5.72 5.733c0.242 0.244 0.577 0.394 0.947 0.394s0.705-0.151 0.947-0.394l0-0c0.244-0.242 0.394-0.577 0.394-0.947s-0.151-0.705-0.394-0.947l-0-0z"></path>
</symbol>
<symbol id="cloud-download" viewBox="0 0 32 32">
<path d="M19.080 21.84l-1.747 1.68v-7.52c0-0.736-0.597-1.333-1.333-1.333s-1.333 0.597-1.333 1.333v0 7.453l-1.72-1.733c-0.242-0.242-0.577-0.392-0.947-0.392-0.739 0-1.339 0.599-1.339 1.339 0 0.37 0.15 0.704 0.392 0.947l4 4c0.241 0.239 0.573 0.387 0.939 0.387 0.003 0 0.005 0 0.008-0h-0c0.358-0.001 0.682-0.144 0.92-0.374l-0 0 4-3.867c0.297-0.246 0.485-0.615 0.485-1.028 0-0.736-0.597-1.333-1.333-1.333-0.393 0-0.746 0.17-0.99 0.441l-0.001 0.001z"></path>
<path d="M23.56 9.333c-1.117-3.16-4.079-5.383-7.56-5.383s-6.443 2.223-7.543 5.327l-0.017 0.056c-3.281 0.452-5.782 3.238-5.782 6.608 0 1.698 0.635 3.249 1.681 4.426l-0.006-0.007c0.234 0.406 0.665 0.675 1.159 0.675 0.736 0 1.333-0.597 1.333-1.333 0-0.417-0.191-0.789-0.49-1.033l-0.002-0.002c-0.632-0.704-1.019-1.64-1.019-2.667 0-2.209 1.791-4 4-4 0.007 0 0.013 0 0.020 0h0.132c0.008 0 0.017 0 0.027 0 0.642 0 1.178-0.454 1.305-1.058l0.002-0.009c0.511-2.454 2.657-4.272 5.227-4.272s4.715 1.818 5.221 4.237l0.006 0.035c0.128 0.613 0.664 1.067 1.306 1.067 0.009 0 0.019-0 0.028-0l-0.001 0h0.080c0.006-0 0.012-0 0.019-0 2.209 0 4 1.791 4 4 0 1.026-0.387 1.962-1.022 2.67l0.003-0.004c-0.21 0.235-0.338 0.546-0.338 0.887 0 0.401 0.177 0.76 0.457 1.005l0.002 0.001c0.233 0.207 0.542 0.333 0.88 0.333h0c0.398-0.001 0.755-0.175 0.999-0.452l0.001-0.001c1.079-1.18 1.739-2.758 1.739-4.491 0-3.393-2.534-6.193-5.813-6.613l-0.033-0.003z"></path>
</symbol>
<symbol id="cloud-upload" viewBox="0 0 32 32">
<path d="M16.947 15.053c-0.24-0.236-0.57-0.381-0.933-0.381s-0.693 0.145-0.934 0.381l0-0-4 3.867c-0.297 0.246-0.485 0.615-0.485 1.028 0 0.736 0.597 1.333 1.333 1.333 0.393 0 0.746-0.17 0.99-0.441l0.001-0.001 1.747-1.693v7.52c0 0.736 0.597 1.333 1.333 1.333s1.333-0.597 1.333-1.333v0-7.453l1.72 1.733c0.242 0.244 0.577 0.394 0.947 0.394s0.705-0.151 0.947-0.394l0-0c0.244-0.242 0.394-0.577 0.394-0.947s-0.151-0.705-0.394-0.947l-0-0z"></path>
<path d="M23.56 9.333c-1.117-3.16-4.079-5.383-7.56-5.383s-6.443 2.223-7.543 5.327l-0.017 0.056c-3.281 0.452-5.782 3.238-5.782 6.608 0 1.698 0.635 3.249 1.681 4.426l-0.006-0.007c0.234 0.406 0.665 0.675 1.159 0.675 0.736 0 1.333-0.597 1.333-1.333 0-0.417-0.191-0.789-0.49-1.033l-0.002-0.002c-0.632-0.704-1.019-1.64-1.019-2.667 0-2.209 1.791-4 4-4 0.007 0 0.013 0 0.020 0h0.132c0.008 0 0.017 0 0.027 0 0.642 0 1.178-0.454 1.305-1.058l0.002-0.009c0.511-2.454 2.657-4.272 5.227-4.272s4.715 1.818 5.221 4.237l0.006 0.035c0.128 0.613 0.664 1.067 1.306 1.067 0.009 0 0.019-0 0.028-0l-0.001 0h0.080c0.006-0 0.012-0 0.019-0 2.209 0 4 1.791 4 4 0 1.026-0.387 1.962-1.022 2.67l0.003-0.004c-0.21 0.235-0.338 0.546-0.338 0.887 0 0.401 0.177 0.76 0.457 1.005l0.002 0.001c0.233 0.207 0.542 0.333 0.88 0.333h0c0.398-0.001 0.755-0.175 0.999-0.452l0.001-0.001c1.079-1.18 1.739-2.758 1.739-4.491 0-3.393-2.534-6.193-5.813-6.613l-0.033-0.003z"></path>
</symbol>
<symbol id="expand" viewBox="0 0 32 32">
<path d="M26.667 6.667c0-0.736-0.597-1.333-1.333-1.333v0h-6.667c-0.736 0-1.333 0.597-1.333 1.333s0.597 1.333 1.333 1.333v0h3.427l-4.373 4.387c-0.244 0.242-0.394 0.577-0.394 0.947s0.151 0.705 0.394 0.947l0 0c0.242 0.244 0.577 0.394 0.947 0.394s0.705-0.151 0.947-0.394l4.387-4.387v3.44c0 0.736 0.597 1.333 1.333 1.333v0c0.736 0 1.333-0.597 1.333-1.333v0z"></path>
<path d="M14.28 17.72c-0.242-0.244-0.577-0.394-0.947-0.394s-0.705 0.151-0.947 0.394l-0 0-4.387 4.373v-3.427c0-0.736-0.597-1.333-1.333-1.333v0c-0.736 0-1.333 0.597-1.333 1.333v0 6.667c0 0.736 0.597 1.333 1.333 1.333v0h6.667c0.736 0 1.333-0.597 1.333-1.333s-0.597-1.333-1.333-1.333v0h-3.44l4.387-4.387c0.244-0.242 0.394-0.577 0.394-0.947s-0.151-0.705-0.394-0.947l-0-0z"></path>
</symbol>
<symbol id="file" viewBox="0 0 32 32">
<path d="M26.32 11.107l-7.253-8c-0.244-0.27-0.596-0.439-0.986-0.44h-9.334c-0.012-0-0.026-0-0.040-0-1.849 0-3.351 1.488-3.373 3.331l-0 0.002v20c0.022 1.846 1.524 3.334 3.373 3.334 0.014 0 0.028-0 0.042-0l-0.002 0h14.507c0.012 0 0.026 0 0.040 0 1.849 0 3.351-1.488 3.373-3.331l0-0.002v-14c-0.001-0.345-0.132-0.658-0.348-0.894l0.001 0.001zM23.533 12h-5.253c-0.536-0.054-0.95-0.503-0.95-1.048 0-0.030 0.001-0.060 0.004-0.089l-0 0.004v-5.533h0.147zM23.253 26.667h-14.507c-0.012 0.001-0.027 0.001-0.041 0.001-0.377 0-0.684-0.295-0.706-0.666l-0-0.002v-20c0.021-0.373 0.329-0.668 0.706-0.668 0.014 0 0.029 0 0.043 0.001l-0.002-0h5.92v5.533c-0.001 0.024-0.001 0.053-0.001 0.082 0 2.017 1.606 3.66 3.609 3.718l0.005 0h5.72v11.333c-0.021 0.373-0.329 0.668-0.706 0.668-0.014 0-0.029-0-0.043-0.001l0.002 0z"></path>
</symbol>
<symbol id="funnel" viewBox="0 0 32 32">
<path d="M18.533 29.333c-0.302 0-0.58-0.1-0.803-0.269l0.003 0.002-5.333-4.067c-0.318-0.246-0.52-0.628-0.52-1.057 0-0.004 0-0.007 0-0.011v0.001-4.36l-6.4-12.293c-0.094-0.178-0.149-0.389-0.149-0.613 0-0.736 0.597-1.333 1.333-1.333 0.001 0 0.002 0 0.003 0h18.666c0.485 0 0.91 0.26 1.143 0.647l0.003 0.006c0.112 0.191 0.179 0.421 0.179 0.667s-0.066 0.475-0.182 0.673l0.003-0.006-6.667 12.28v8.4c0 0.003 0 0.006 0 0.009 0 0.518-0.295 0.966-0.726 1.187l-0.008 0.003c-0.16 0.079-0.347 0.128-0.545 0.133l-0.002 0zM14.533 23.28l2.667 2.040v-6.067c0-0.002 0-0.004 0-0.005 0-0.211 0.049-0.411 0.137-0.589l-0.003 0.008 5.733-10.667h-14.213l5.507 10.667c0.092 0.177 0.147 0.386 0.147 0.608 0 0.002 0 0.004 0 0.006v-0z"></path>
</symbol>
<symbol id="minus" viewBox="0 0 32 32">
<path d="M25.333 17.333h-18.667c-0.736 0-1.333-0.597-1.333-1.333s0.597-1.333 1.333-1.333v0h18.667c0.736 0 1.333 0.597 1.333 1.333s-0.597 1.333-1.333 1.333v0z"></path>
</symbol>
<symbol id="more-horizontal" viewBox="0 0 32 32">
<path d="M18.667 16c0 1.473-1.194 2.667-2.667 2.667s-2.667-1.194-2.667-2.667c0-1.473 1.194-2.667 2.667-2.667s2.667 1.194 2.667 2.667z"></path>
<path d="M28 16c0 1.473-1.194 2.667-2.667 2.667s-2.667-1.194-2.667-2.667c0-1.473 1.194-2.667 2.667-2.667s2.667 1.194 2.667 2.667z"></path>
<path d="M9.333 16c0 1.473-1.194 2.667-2.667 2.667s-2.667-1.194-2.667-2.667c0-1.473 1.194-2.667 2.667-2.667s2.667 1.194 2.667 2.667z"></path>
</symbol>
<symbol id="more-vertical" viewBox="0 0 32 32">
<path d="M18.667 16c0 1.473-1.194 2.667-2.667 2.667s-2.667-1.194-2.667-2.667c0-1.473 1.194-2.667 2.667-2.667s2.667 1.194 2.667 2.667z"></path>
<path d="M18.667 6.667c0 1.473-1.194 2.667-2.667 2.667s-2.667-1.194-2.667-2.667c0-1.473 1.194-2.667 2.667-2.667s2.667 1.194 2.667 2.667z"></path>
<path d="M18.667 25.333c0 1.473-1.194 2.667-2.667 2.667s-2.667-1.194-2.667-2.667c0-1.473 1.194-2.667 2.667-2.667s2.667 1.194 2.667 2.667z"></path>
</symbol>
<symbol id="pin" viewBox="0 0 32 32">
<path d="M16 2.667c-0 0-0 0-0.001 0-5.854 0-10.606 4.715-10.666 10.554l-0 0.006c0 7.307 9.4 15.44 9.8 15.787 0.232 0.199 0.535 0.32 0.867 0.32s0.635-0.121 0.868-0.322l-0.002 0.002c0.467-0.347 9.8-8.48 9.8-15.787-0.060-5.845-4.813-10.56-10.666-10.56-0 0-0 0-0.001 0h0zM16 26.2c-2.227-2.12-8-8-8-12.973 0-4.418 3.582-8 8-8s8 3.582 8 8v0c0 4.933-5.773 10.853-8 12.973z"></path>
<path d="M16 8c-2.577 0-4.667 2.089-4.667 4.667s2.089 4.667 4.667 4.667c2.577 0 4.667-2.089 4.667-4.667v0c0-2.577-2.089-4.667-4.667-4.667v0zM16 14.667c-1.105 0-2-0.895-2-2s0.895-2 2-2c1.105 0 2 0.895 2 2v0c0 1.105-0.895 2-2 2v0z"></path>
</symbol>
<symbol id="plus" viewBox="0 0 32 32">
<path d="M25.333 14.667h-8v-8c0-0.736-0.597-1.333-1.333-1.333s-1.333 0.597-1.333 1.333v0 8h-8c-0.736 0-1.333 0.597-1.333 1.333s0.597 1.333 1.333 1.333v0h8v8c0 0.736 0.597 1.333 1.333 1.333s1.333-0.597 1.333-1.333v0-8h8c0.736 0 1.333-0.597 1.333-1.333s-0.597-1.333-1.333-1.333v0z"></path>
</symbol>
<symbol id="question-mark-circle" viewBox="0 0 32 32">
<path d="M16 2.667c-7.364 0-13.333 5.97-13.333 13.333s5.97 13.333 13.333 13.333c7.364 0 13.333-5.97 13.333-13.333v0c0-7.364-5.97-13.333-13.333-13.333v0zM16 26.667c-5.891 0-10.667-4.776-10.667-10.667s4.776-10.667 10.667-10.667c5.891 0 10.667 4.776 10.667 10.667v0c0 5.891-4.776 10.667-10.667 10.667v0z"></path>
<path d="M16 8c-2.577 0-4.667 2.089-4.667 4.667v0c0 0.736 0.597 1.333 1.333 1.333s1.333-0.597 1.333-1.333v0c0-1.105 0.895-2 2-2s2 0.895 2 2c0 1.105-0.895 2-2 2v0c-0.736 0-1.333 0.597-1.333 1.333v0 2.667c0 0.736 0.597 1.333 1.333 1.333s1.333-0.597 1.333-1.333v0-1.547c1.951-0.583 3.349-2.362 3.349-4.467 0-2.57-2.083-4.653-4.653-4.653-0.010 0-0.020 0-0.030 0h0.002z"></path>
<path d="M17.333 22.667c0 0.736-0.597 1.333-1.333 1.333s-1.333-0.597-1.333-1.333c0-0.736 0.597-1.333 1.333-1.333s1.333 0.597 1.333 1.333z"></path>
</symbol>
<symbol id="question-mark" viewBox="0 0 32 32">
<path d="M22.667 12c0-3.682-2.985-6.667-6.667-6.667s-6.667 2.985-6.667 6.667v0c0 0.736 0.597 1.333 1.333 1.333s1.333-0.597 1.333-1.333v0c0-2.209 1.791-4 4-4s4 1.791 4 4c0 2.209-1.791 4-4 4v0c-0.736 0-1.333 0.597-1.333 1.333v0 2.667c0 0.736 0.597 1.333 1.333 1.333s1.333-0.597 1.333-1.333v0-1.467c3.065-0.642 5.333-3.322 5.333-6.532 0-0 0-0.001 0-0.001v0z"></path>
<path d="M17.333 25.333c0 0.736-0.597 1.333-1.333 1.333s-1.333-0.597-1.333-1.333c0-0.736 0.597-1.333 1.333-1.333s1.333 0.597 1.333 1.333z"></path>
</symbol>
<symbol id="search" viewBox="0 0 32 32">
<path d="M27.613 25.72l-4.533-4.52c1.405-1.777 2.253-4.049 2.253-6.52 0-0.005 0-0.009 0-0.014v0.001c0-5.891-4.776-10.667-10.667-10.667s-10.667 4.776-10.667 10.667c0 5.891 4.776 10.667 10.667 10.667v0c0.004 0 0.008 0 0.013 0 2.471 0 4.744-0.849 6.542-2.27l-0.022 0.017 4.52 4.533c0.242 0.244 0.577 0.394 0.947 0.394s0.705-0.151 0.947-0.394l0-0c0.244-0.242 0.394-0.577 0.394-0.947s-0.151-0.705-0.394-0.947l-0-0zM6.667 14.667c0-4.418 3.582-8 8-8s8 3.582 8 8c0 4.418-3.582 8-8 8v0c-4.418 0-8-3.582-8-8v0z"></path>
</symbol>
<symbol id="settings" viewBox="0 0 32 32">
<path d="M11.48 29.333c-0.68-0.004-1.306-0.234-1.807-0.619l0.007 0.005-2.76-2.053c-0.744-0.584-1.217-1.483-1.217-2.492 0-0.674 0.211-1.299 0.57-1.811l-0.007 0.010c0.296-0.432 0.472-0.965 0.472-1.54 0-0.337-0.061-0.66-0.172-0.959l0.006 0.019-0.080-0.213c-0.216-0.755-0.767-1.349-1.477-1.621l-0.017-0.006h-0.213c-1.246-0.428-2.126-1.59-2.126-2.957 0-0.344 0.056-0.675 0.159-0.985l-0.006 0.022 1.093-3.467c0.212-0.826 0.756-1.496 1.477-1.872l0.016-0.008c0.38-0.2 0.83-0.317 1.307-0.317 0.334 0 0.655 0.057 0.953 0.163l-0.020-0.006c0.245 0.085 0.527 0.134 0.821 0.134 0.586 0 1.126-0.196 1.559-0.526l-0.006 0.005 0.173-0.133c0.593-0.476 0.971-1.2 0.973-2.013v-0.32c-0-0.004-0-0.009-0-0.014 0-1.694 1.362-3.071 3.051-3.093l0.002-0h3.4c0.834 0.002 1.589 0.344 2.133 0.893l0 0c0.561 0.57 0.907 1.352 0.907 2.216 0 0.009-0 0.017-0 0.026v-0.001 0.373c-0 0.013-0 0.028-0 0.043 0 0.757 0.358 1.43 0.915 1.859l0.005 0.004 0.147 0.107c0.383 0.29 0.867 0.464 1.392 0.464 0.26 0 0.511-0.043 0.744-0.122l-0.016 0.005 0.453-0.147c0.283-0.097 0.609-0.153 0.948-0.153 1.362 0 2.514 0.904 2.886 2.145l0.006 0.021 1.053 3.36c0.092 0.282 0.144 0.606 0.144 0.942 0 1.359-0.862 2.517-2.069 2.957l-0.022 0.007-0.267 0.093c-0.796 0.266-1.405 0.897-1.636 1.689l-0.004 0.018c-0.066 0.221-0.104 0.474-0.104 0.737 0 0.544 0.163 1.051 0.443 1.473l-0.006-0.010 0.347 0.507c0.351 0.503 0.56 1.127 0.56 1.8 0 1.016-0.477 1.92-1.22 2.501l-0.007 0.005-2.68 2.067c-0.497 0.383-1.129 0.614-1.814 0.614-1.028 0-1.935-0.52-2.472-1.311l-0.007-0.010-0.16-0.227c-0.424-0.631-1.136-1.041-1.943-1.041-0.020 0-0.040 0-0.060 0.001l0.003-0c-0.788 0.021-1.479 0.419-1.902 1.019l-0.005 0.008-0.307 0.44c-0.455 0.674-1.161 1.149-1.982 1.291l-0.018 0.003c-0.078 0.008-0.168 0.013-0.26 0.013s-0.182-0.005-0.271-0.014l0.011 0.001zM5.867 15.493c1.526 0.555 2.692 1.774 3.164 3.297l0.010 0.036v0.16c0.202 0.54 0.318 1.164 0.318 1.815 0 1.125-0.348 2.169-0.943 3.029l0.012-0.018c-0.081 0.090-0.131 0.209-0.131 0.34s0.050 0.25 0.131 0.34l-0-0 2.867 2.173c0.056 0.044 0.128 0.071 0.206 0.071 0.122 0 0.228-0.065 0.287-0.163l0.001-0.002 0.307-0.44c0.919-1.316 2.427-2.166 4.133-2.166s3.214 0.85 4.123 2.15l0.011 0.016 0.16 0.24c0.057 0.080 0.14 0.137 0.237 0.159l0.003 0.001c0.015 0.002 0.032 0.004 0.049 0.004 0.078 0 0.149-0.026 0.205-0.071l-0.001 0.001 2.747-2.080c0.111-0.089 0.182-0.224 0.182-0.376 0-0.104-0.033-0.2-0.089-0.279l0.001 0.001-0.347-0.507c-0.585-0.844-0.935-1.889-0.935-3.016 0-0.551 0.083-1.082 0.238-1.581l-0.010 0.038c0.489-1.638 1.715-2.917 3.283-3.469l0.037-0.011 0.267-0.093c0.168-0.069 0.285-0.231 0.285-0.421 0-0.060-0.012-0.117-0.032-0.169l0.001 0.003-1.040-3.32c-0.051-0.117-0.146-0.208-0.263-0.252l-0.003-0.001c-0.037-0.019-0.080-0.030-0.127-0.030s-0.090 0.011-0.128 0.031l0.002-0.001-0.453 0.147c-0.467 0.159-1.004 0.251-1.563 0.251-1.136 0-2.184-0.38-3.023-1.020l0.012 0.009-0.053-0.12c-1.212-0.925-1.987-2.37-1.987-3.997 0-0.001 0-0.002 0-0.004v0-0.413c0-0.003 0-0.006 0-0.009 0-0.131-0.051-0.249-0.134-0.338l0 0c-0.073-0.066-0.17-0.107-0.277-0.107-0.001 0-0.002 0-0.003 0h-3.386c-0.217 0.014-0.388 0.193-0.388 0.413 0 0.010 0 0.019 0.001 0.029l-0-0.001v0.333c0 0 0 0 0 0.001 0 1.672-0.789 3.159-2.015 4.111l-0.012 0.009-0.173 0.133c-0.866 0.665-1.965 1.065-3.158 1.065-0.602 0-1.18-0.102-1.718-0.29l0.037 0.011c-0.028-0.010-0.060-0.015-0.093-0.015s-0.066 0.006-0.095 0.016l0.002-0.001c-0.075 0.046-0.131 0.115-0.159 0.197l-0.001 0.003-1.107 3.48c-0.015 0.044-0.024 0.095-0.024 0.149 0 0.207 0.13 0.383 0.314 0.45l0.003 0.001z"></path>
<path d="M16 20.667c-2.577 0-4.667-2.089-4.667-4.667s2.089-4.667 4.667-4.667c2.577 0 4.667 2.089 4.667 4.667v0c0 2.577-2.089 4.667-4.667 4.667v0zM16 14c-1.105 0-2 0.895-2 2s0.895 2 2 2c1.105 0 2-0.895 2-2v0c0-1.105-0.895-2-2-2v0z"></path>
</symbol>
<symbol id="star" viewBox="0 0 32 32">
<path d="M23.413 28c-0.002 0-0.003 0-0.005 0-0.222 0-0.431-0.054-0.615-0.15l0.007 0.003-6.8-3.56-6.8 3.56c-0.18 0.096-0.394 0.153-0.621 0.153-0.736 0-1.333-0.597-1.333-1.333 0-0.082 0.007-0.163 0.022-0.241l-0.001 0.008 1.333-7.507-5.493-5.333c-0.242-0.241-0.392-0.575-0.392-0.944 0-0.139 0.021-0.273 0.061-0.399l-0.003 0.009c0.16-0.479 0.571-0.832 1.073-0.906l0.007-0.001 7.6-1.107 3.347-6.84c0.221-0.449 0.675-0.752 1.2-0.752s0.979 0.303 1.197 0.744l0.003 0.008 3.387 6.827 7.6 1.107c0.509 0.074 0.92 0.428 1.077 0.897l0.003 0.009c0.037 0.117 0.058 0.251 0.058 0.39 0 0.369-0.15 0.702-0.391 0.944l-0 0-5.493 5.333 1.333 7.507c0.015 0.075 0.024 0.161 0.024 0.249 0 0.445-0.218 0.839-0.553 1.081l-0.004 0.003c-0.213 0.151-0.479 0.241-0.765 0.241-0.022 0-0.043-0-0.064-0.002l0.003 0zM16 21.467c0.009-0 0.020-0 0.031-0 0.213 0 0.414 0.054 0.589 0.15l-0.006-0.003 5.027 2.667-0.96-5.613c-0.013-0.069-0.020-0.148-0.020-0.228 0-0.376 0.156-0.716 0.406-0.958l0-0 4-3.907-5.6-0.827c-0.423-0.087-0.767-0.366-0.943-0.739l-0.003-0.008-2.52-5-2.52 5c-0.196 0.383-0.56 0.655-0.993 0.719l-0.007 0.001-5.6 0.827 4 3.907c0.251 0.243 0.406 0.582 0.406 0.958 0 0.081-0.007 0.16-0.021 0.236l0.001-0.008-0.96 5.547 5.027-2.667c0.127-0.049 0.274-0.077 0.427-0.077 0.085 0 0.167 0.009 0.247 0.025l-0.008-0.001z"></path>
</symbol>
<symbol id="trash-2" viewBox="0 0 32 32">
<path d="M28 8h-6.667v-2.227c-0.065-1.73-1.484-3.108-3.224-3.108-0.038 0-0.076 0.001-0.114 0.002l0.006-0h-4c-0.032-0.001-0.071-0.002-0.109-0.002-1.74 0-3.159 1.378-3.224 3.103l-0 0.006v2.227h-6.667c-0.736 0-1.333 0.597-1.333 1.333s0.597 1.333 1.333 1.333v0h1.333v14.667c0 2.209 1.791 4 4 4v0h13.333c2.209 0 4-1.791 4-4v0-14.667h1.333c0.736 0 1.333-0.597 1.333-1.333s-0.597-1.333-1.333-1.333v0zM13.333 5.773c0-0.213 0.28-0.44 0.667-0.44h4c0.387 0 0.667 0.227 0.667 0.44v2.227h-5.333zM24 25.333c0 0.736-0.597 1.333-1.333 1.333v0h-13.333c-0.736 0-1.333-0.597-1.333-1.333v0-14.667h16z"></path>
<path d="M12 22.667c0.736 0 1.333-0.597 1.333-1.333v0-5.333c0-0.736-0.597-1.333-1.333-1.333s-1.333 0.597-1.333 1.333v0 5.333c0 0.736 0.597 1.333 1.333 1.333v0z"></path>
<path d="M20 22.667c0.736 0 1.333-0.597 1.333-1.333v0-5.333c0-0.736-0.597-1.333-1.333-1.333s-1.333 0.597-1.333 1.333v0 5.333c0 0.736 0.597 1.333 1.333 1.333v0z"></path>
</symbol>
<symbol id="trash" viewBox="0 0 32 32">
<path d="M28 8h-6.667v-2.227c-0.065-1.73-1.484-3.108-3.224-3.108-0.038 0-0.076 0.001-0.114 0.002l0.006-0h-4c-0.032-0.001-0.071-0.002-0.109-0.002-1.74 0-3.159 1.378-3.224 3.103l-0 0.006v2.227h-6.667c-0.736 0-1.333 0.597-1.333 1.333s0.597 1.333 1.333 1.333v0h1.333v14.667c0 2.209 1.791 4 4 4v0h13.333c2.209 0 4-1.791 4-4v0-14.667h1.333c0.736 0 1.333-0.597 1.333-1.333s-0.597-1.333-1.333-1.333v0zM13.333 5.773c0-0.213 0.28-0.44 0.667-0.44h4c0.387 0 0.667 0.227 0.667 0.44v2.227h-5.333zM24 25.333c0 0.736-0.597 1.333-1.333 1.333v0h-13.333c-0.736 0-1.333-0.597-1.333-1.333v0-14.667h16z"></path>
</symbol>
<symbol id="alert-circle" viewBox="0 0 32 32">
<path d="M16 2.667c-7.364 0-13.333 5.97-13.333 13.333s5.97 13.333 13.333 13.333c7.364 0 13.333-5.97 13.333-13.333v0c0-7.364-5.97-13.333-13.333-13.333v0zM16 26.667c-5.891 0-10.667-4.776-10.667-10.667s4.776-10.667 10.667-10.667c5.891 0 10.667 4.776 10.667 10.667v0c0 5.891-4.776 10.667-10.667 10.667v0z"></path>
<path d="M17.333 21.333c0 0.736-0.597 1.333-1.333 1.333s-1.333-0.597-1.333-1.333c0-0.736 0.597-1.333 1.333-1.333s1.333 0.597 1.333 1.333z"></path>
<path d="M16 9.333c-0.736 0-1.333 0.597-1.333 1.333v0 6.667c0 0.736 0.597 1.333 1.333 1.333s1.333-0.597 1.333-1.333v0-6.667c0-0.736-0.597-1.333-1.333-1.333v0z"></path>
</symbol>
</defs>
</svg>
